# xmcd
#
# Track frame offsets:
# 150
# 14350
# 28050
# 40883
# 54872
# 68762
# 85902
# 96086
# 109546
# 129046
# 137675
# 153549
# 163053
# 175611
# 200732
#
# Disc length: 4440 seconds
#
#
# Revision: 1
# Processed by: cddbd v1.5.2PL0 Copyright (c) Steve Scherf et al.
# Submitted via: FreeRIP 2.945 
#
DISCID=bb11560f
DTITLE=Troy Cassar-Daley - Borrowed and Blue
DYEAR=2004
DGENRE=Country
TTITLE0=Factory Man
TTITLE1=My Old Friend The Blues
TTITLE2=River Boy
TTITLE3=Yer So Bad
TTITLE4=Big City
TTITLE5=Dark End Of The Street
TTITLE6=Why Baby Why
TTITLE7=I Got A Name
TTITLE8=Till I Gain Control
TTITLE9=Losin' My Blues Tonight
TTITLE10=I Still Miss Someone
TTITLE11=My Buckets Got A Hole In It
TTITLE12=I'm An Old Man Tryin' To Live While I Can
TTITLE13=Still Can't Say Goodbye
TTITLE14=DATA
EXTD=
EXTT0=
EXTT1=
EXTT2=
EXTT3=
EXTT4=
EXTT5=
EXTT6=
EXTT7=
EXTT8=
EXTT9=
EXTT10=
EXTT11=
EXTT12=
EXTT13=
EXTT14=
PLAYORDER=
